# Blender v2.62 (sub 0) OBJ File: 'piece.blend'
# www.blender.org
o Icosphere
v 0.000000 0.634710 0.000000
v 0.723600 1.187495 0.525720
v -0.276385 1.187495 0.850640
v -0.894425 1.187495 0.000000
v -0.276385 1.187495 -0.850640
v 0.723600 1.187495 -0.525720
v 0.276385 2.081925 0.850640
v -0.723600 2.081925 0.525720
v -0.723600 2.081925 -0.525720
v 0.276385 2.081925 -0.850640
v 0.894425 2.081925 0.000000
v 0.000000 2.634710 0.000000
v -0.162456 0.784056 0.499995
v 0.425323 0.784056 0.309011
v 0.262869 1.108973 0.809012
v 0.425323 0.784056 -0.309011
v 0.850648 1.108974 0.000000
v -0.525730 0.784059 0.000000
v -0.688189 1.108974 0.499997
v -0.162456 0.784056 -0.499995
v -0.688189 1.108974 -0.499997
v 0.262869 1.108973 -0.809012
v 0.951058 1.634710 -0.309013
v 0.951058 1.634710 0.309013
v 0.587786 1.634710 0.809017
v 0.000000 1.634710 1.000000
v -0.587786 1.634710 0.809017
v -0.951058 1.634710 0.309013
v -0.951058 1.634710 -0.309013
v -0.587786 1.634710 -0.809017
v 0.000000 1.634710 -1.000000
v 0.587786 1.634710 -0.809017
v 0.688189 2.160446 0.499997
v -0.262869 2.160448 0.809012
v -0.850648 2.160446 0.000000
v -0.262869 2.160448 -0.809012
v 0.688189 2.160446 -0.499997
v 0.525730 2.485362 0.000000
v 0.162456 2.485364 0.499995
v -0.425323 2.485364 0.309011
v -0.425323 2.485364 -0.309011
v 0.162456 2.485364 -0.499995
v 0.000000 -1.064209 -0.266571
v 0.171348 -1.064209 -0.204205
v 0.262521 -1.064209 -0.046289
v 0.230857 -1.064209 0.133285
v 0.091173 -1.064209 0.250495
v -0.091173 -1.064209 0.250495
v -0.230857 -1.064209 0.133285
v -0.262521 -1.064209 -0.046289
v -0.171348 -1.064209 -0.204205
v -0.000000 1.064209 -0.266571
v 0.171348 1.064209 -0.204205
v 0.262521 1.064209 -0.046290
v 0.230857 1.064209 0.133285
v 0.091173 1.064209 0.250495
v -0.091172 1.064209 0.250495
v -0.230857 1.064209 0.133286
v -0.262521 1.064209 -0.046289
v -0.171349 1.064209 -0.204205
v -0.000000 -1.178434 -0.915480
v 0.588459 -1.178434 -0.701298
v 0.901572 -1.178434 -0.158971
v 0.792829 -1.178434 0.457740
v 0.313112 -1.178434 0.860270
v -0.313113 -1.178434 0.860270
v -0.792829 -1.178434 0.457740
v -0.901572 -1.178434 -0.158971
v -0.588459 -1.178434 -0.701298
v -0.000000 -0.859495 -0.915480
v 0.588459 -0.859495 -0.701298
v 0.901572 -0.859495 -0.158972
v 0.792829 -0.859495 0.457739
v 0.313113 -0.859495 0.860270
v -0.313112 -0.859495 0.860270
v -0.792828 -0.859495 0.457741
v -0.901572 -0.859495 -0.158970
v -0.588460 -0.859495 -0.701297
v -0.000000 -1.178434 0.000000
v -0.000000 -0.859495 0.000000
vn 0.102381 -0.943523 0.315090
vn 0.331305 -0.943524 0.000000
vn -0.268034 -0.943523 0.194736
vn -0.268034 -0.943523 -0.194736
vn 0.102381 -0.943523 -0.315090
vn -0.000000 -1.000000 0.000000
vn 0.000000 1.000000 -0.000000
vn 0.262856 -0.525712 0.808985
vn -0.276376 -0.447218 0.850642
vn -0.162450 -0.850642 0.499985
vn 0.425306 -0.850642 0.309000
vn 0.723594 -0.447188 0.525712
vn 0.850642 -0.525712 0.000000
vn 0.425306 -0.850642 -0.309000
vn 0.723594 -0.447188 -0.525712
vn -0.688162 -0.525712 0.499985
vn -0.894406 -0.447188 0.000000
vn -0.525712 -0.850642 0.000000
vn -0.688162 -0.525712 -0.499985
vn -0.276376 -0.447218 -0.850642
vn -0.162450 -0.850642 -0.499985
vn 0.262856 -0.525712 -0.808985
vn 0.951048 0.000000 0.309000
vn 0.951048 0.000000 -0.309000
vn 0.894406 0.447188 0.000000
vn 0.000000 0.000000 1.000000
vn 0.587756 0.000000 0.809015
vn 0.276376 0.447218 0.850642
vn -0.951048 0.000000 0.309000
vn -0.587756 0.000000 0.809015
vn -0.723594 0.447188 0.525712
vn -0.587756 0.000000 -0.809015
vn -0.951048 0.000000 -0.309000
vn -0.723594 0.447188 -0.525712
vn 0.587756 0.000000 -0.809015
vn 0.000000 0.000000 -1.000000
vn 0.276376 0.447218 -0.850642
vn 0.688162 0.525712 0.499985
vn -0.262856 0.525712 0.808985
vn -0.850642 0.525712 0.000000
vn -0.262856 0.525712 -0.808985
vn 0.688162 0.525712 -0.499985
vn 0.162450 0.850642 0.499985
vn 0.525712 0.850642 0.000000
vn -0.425306 0.850642 0.309000
vn -0.425306 0.850642 -0.309000
vn 0.162450 0.850642 -0.499985
vn 0.642781 0.000000 -0.766015
vn 0.984802 0.000000 -0.173620
vn 0.866024 0.000000 0.499985
vn 0.341990 0.000000 0.939665
vn -0.341990 0.000000 0.939665
vn -0.866024 0.000000 0.499985
vn -0.984802 0.000000 -0.173620
vn -0.642781 0.000000 -0.766015
vn 0.000000 -0.637593 -0.770348
vn 0.000000 0.637593 -0.770348
vn 0.495163 0.637593 -0.590106
vn 0.495163 -0.637593 -0.590106
vn 0.758629 0.637593 -0.133763
vn 0.758629 -0.637593 -0.133763
vn 0.667135 0.637593 0.385174
vn 0.667135 -0.637593 0.385174
vn 0.263466 0.637593 0.723869
vn 0.263466 -0.637593 0.723869
vn -0.263466 0.637593 0.723869
vn -0.263466 -0.637593 0.723869
vn -0.667135 0.637593 0.385174
vn -0.667135 -0.637593 0.385174
vn -0.758629 0.637593 -0.133763
vn -0.758629 -0.637593 -0.133763
vn -0.495163 0.637593 -0.590106
vn -0.495163 -0.637593 -0.590106
s off
f 13//1 1//1 14//1
f 14//2 1//2 16//2
f 18//3 1//3 13//3
f 20//4 1//4 18//4
f 16//5 1//5 20//5
f 79//6 61//6 62//6
f 80//7 71//7 70//7
f 79//6 62//6 63//6
f 80//7 72//7 71//7
f 79//6 63//6 64//6
f 80//7 73//7 72//7
f 79//6 64//6 65//6
f 80//7 74//7 73//7
f 79//6 65//6 66//6
f 80//7 75//7 74//7
f 79//6 66//6 67//6
f 80//7 76//7 75//7
f 79//6 67//6 68//6
f 80//7 77//7 76//7
f 79//6 68//6 69//6
f 80//7 78//7 77//7
f 79//6 69//6 61//6
f 80//7 70//7 78//7
s 1
f 15//8 3//9 13//10
f 13//10 14//11 15//8
f 2//12 15//8 14//11
f 17//13 2//12 14//11
f 14//11 16//14 17//13
f 6//15 17//13 16//14
f 19//16 4//17 18//18
f 18//18 13//10 19//16
f 3//9 19//16 13//10
f 21//19 5//20 20//21
f 20//21 18//18 21//19
f 4//17 21//19 18//18
f 22//22 6//15 16//14
f 16//14 20//21 22//22
f 5//20 22//22 20//21
f 24//23 2//12 17//13
f 17//13 23//24 24//23
f 11//25 24//23 23//24
f 23//24 17//13 6//15
f 26//26 3//9 15//8
f 15//8 25//27 26//26
f 7//28 26//26 25//27
f 25//27 15//8 2//12
f 28//29 4//17 19//16
f 19//16 27//30 28//29
f 8//31 28//29 27//30
f 27//30 19//16 3//9
f 30//32 5//20 21//19
f 21//19 29//33 30//32
f 9//34 30//32 29//33
f 29//33 21//19 4//17
f 32//35 6//15 22//22
f 22//22 31//36 32//35
f 10//37 32//35 31//36
f 31//36 22//22 5//20
f 33//38 7//28 25//27
f 25//27 24//23 33//38
f 11//25 33//38 24//23
f 24//23 25//27 2//12
f 34//39 8//31 27//30
f 27//30 26//26 34//39
f 7//28 34//39 26//26
f 26//26 27//30 3//9
f 35//40 9//34 29//33
f 29//33 28//29 35//40
f 8//31 35//40 28//29
f 28//29 29//33 4//17
f 36//41 10//37 31//36
f 31//36 30//32 36//41
f 9//34 36//41 30//32
f 30//32 31//36 5//20
f 37//42 11//25 23//24
f 23//24 32//35 37//42
f 10//37 37//42 32//35
f 32//35 23//24 6//15
f 39//43 7//28 33//38
f 33//38 38//44 39//43
f 12//7 39//43 38//44
f 38//44 33//38 11//25
f 40//45 8//31 34//39
f 34//39 39//43 40//45
f 12//7 40//45 39//43
f 39//43 34//39 7//28
f 41//46 9//34 35//40
f 35//40 40//45 41//46
f 12//7 41//46 40//45
f 40//45 35//40 8//31
f 42//47 10//37 36//41
f 36//41 41//46 42//47
f 12//7 42//47 41//46
f 41//46 36//41 9//34
f 38//44 11//25 37//42
f 37//42 42//47 38//44
f 12//7 38//44 42//47
f 42//47 37//42 10//37
f 43//36 52//36 53//48 44//48
f 44//48 53//48 54//49 45//49
f 45//49 54//49 55//50 46//50
f 46//50 55//50 56//51 47//51
f 47//51 56//51 57//52 48//52
f 48//52 57//52 58//53 49//53
f 49//53 58//53 59//54 50//54
f 50//54 59//54 60//55 51//55
f 51//55 60//55 52//36 43//36
f 61//56 70//57 71//58 62//59
f 62//59 71//58 72//60 63//61
f 63//61 72//60 73//62 64//63
f 64//63 73//62 74//64 65//65
f 65//65 74//64 75//66 66//67
f 66//67 75//66 76//68 67//69
f 67//69 76//68 77//70 68//71
f 68//71 77//70 78//72 69//73
f 69//73 78//72 70//57 61//56
